<svg width="9" height="11" viewBox="0 0 9 11" fill="none" xmlns="http://www.w3.org/2000/svg">
<path fill-rule="evenodd" clip-rule="evenodd" d="M7.06247 0.496651L4.54234 2.99999L2.0222 0.496651C1.74552 0.221819 1.2989 0.22182 1.02222 0.496651C0.742918 0.774094 0.742918 1.22589 1.02222 1.50334L3.8376 4.29995C4.22757 4.68733 4.8571 4.68733 5.24708 4.29995L8.06245 1.50334C8.34175 1.22589 8.34175 0.774094 8.06245 0.496651C7.78578 0.22182 7.33915 0.221819 7.06247 0.496651ZM7.06247 6.49665L4.54234 8.99999L2.0222 6.49665C1.74552 6.22182 1.2989 6.22182 1.02222 6.49665C0.742918 6.77409 0.742918 7.22589 1.02222 7.50334L3.8376 10.3C4.22757 10.6873 4.8571 10.6873 5.24708 10.3L8.06245 7.50334C8.34175 7.22589 8.34175 6.77409 8.06245 6.49665C7.78578 6.22182 7.33915 6.22182 7.06247 6.49665Z" fill="#41F6D7"/>
</svg>
